<svg xmlns="http://www.w3.org/2000/svg" class="fig" viewBox="0 0 702 318" width="702" height="318" role="img" aria-labelledby="fig-l48j8q-t fig-l48j8q-d">
<title id="fig-l48j8q-t">Filtering after the index scan can return too few rows</title>
<desc id="fig-l48j8q-d">Two rows of candidate boxes. Without iterative scans, the HNSW index returns 40 candidates, the filter keeps the 10% that match, and 4 rows come back though the query asked for 10. With iterative scans (pgvector 0.8.0 and later), the index keeps scanning until 10 rows pass or it reaches the hnsw.max_scan_tuples limit.</desc>
<style>
.fig{--bg:var(--t-surface,#fcfbf8);--ink:var(--t-ink,#1f2329);--muted:var(--t-ink-2,#4d5461);--line:var(--t-ink-3,#7d8490);--grid:var(--t-rule,#dfddd6);--blue:var(--line-1,#1f66b0);--orange:var(--line-3,#d9692a);--green:var(--line-2,#1c8f4f);--red:var(--line-0,#d22f3f);--purple:var(--line-4,#80479a);--grey:var(--t-ink-3,#7d8490);--blue-soft:var(--line-1-soft,#dde8f4);--orange-soft:var(--line-3-soft,#f8e5d8);--green-soft:var(--line-2-soft,#d9eee1);--red-soft:var(--line-0-soft,#f6dcdf);--purple-soft:var(--line-4-soft,#ebe0f0);--grey-soft:var(--t-panel,#efeee9);--ink-soft:var(--t-panel,#efeee9);--muted-soft:var(--t-panel,#efeee9)}
@media (prefers-color-scheme: dark){.fig{--bg:var(--t-surface,#1c2026);--ink:var(--t-ink,#d9dee5);--muted:var(--t-ink-2,#a0a8b4);--line:var(--t-ink-3,#7a8390);--grid:var(--t-rule,#2e343d);--blue:var(--line-1,#6d9fe6);--orange:var(--line-3,#de9054);--green:var(--line-2,#52b27d);--red:var(--line-0,#e0636c);--purple:var(--line-4,#b08bcb);--grey:var(--t-ink-3,#7a8390);--blue-soft:var(--line-1-soft,#1f2d42);--orange-soft:var(--line-3-soft,#3a2a1d);--green-soft:var(--line-2-soft,#1c3226);--red-soft:var(--line-0-soft,#3b2226);--purple-soft:var(--line-4-soft,#2e2537);--grey-soft:var(--t-panel,#21262d);--ink-soft:var(--t-panel,#21262d);--muted-soft:var(--t-panel,#21262d)}}
.fig .bg{fill:var(--bg)}
.fig text{font-family:var(--transit-text), 'Public Sans', 'Noto Sans', 'Helvetica Neue', Arial, sans-serif;fill:var(--ink)}
.fig .display{font-family:var(--transit-sign), Overpass, 'Noto Sans', 'Helvetica Neue', Arial, sans-serif}
.fig .mono{font-family:'JetBrains Mono', 'Noto Sans Mono', Menlo, Consolas, monospace}
.fig .grid{stroke:var(--grid)}
.fig .axis{stroke:var(--line)}
.fig .f-ink{fill:var(--ink)}.fig .s-ink{stroke:var(--ink)}.fig .fs-ink{fill:var(--ink-soft)}.fig .t-ink{fill:var(--ink)}
.fig .f-muted{fill:var(--muted)}.fig .s-muted{stroke:var(--muted)}.fig .fs-muted{fill:var(--muted-soft)}.fig .t-muted{fill:var(--muted)}
.fig .f-blue{fill:var(--blue)}.fig .s-blue{stroke:var(--blue)}.fig .fs-blue{fill:var(--blue-soft)}.fig .t-blue{fill:var(--blue)}
.fig .f-orange{fill:var(--orange)}.fig .s-orange{stroke:var(--orange)}.fig .fs-orange{fill:var(--orange-soft)}.fig .t-orange{fill:var(--orange)}
.fig .f-green{fill:var(--green)}.fig .s-green{stroke:var(--green)}.fig .fs-green{fill:var(--green-soft)}.fig .t-green{fill:var(--green)}
.fig .f-red{fill:var(--red)}.fig .s-red{stroke:var(--red)}.fig .fs-red{fill:var(--red-soft)}.fig .t-red{fill:var(--red)}
.fig .f-purple{fill:var(--purple)}.fig .s-purple{stroke:var(--purple)}.fig .fs-purple{fill:var(--purple-soft)}.fig .t-purple{fill:var(--purple)}
.fig .f-grey{fill:var(--grey)}.fig .s-grey{stroke:var(--grey)}.fig .fs-grey{fill:var(--grey-soft)}.fig .t-grey{fill:var(--grey)}
</style>
<defs><marker id="ah-ink" viewBox="0 0 10 10" refX="9" refY="5" markerWidth="7" markerHeight="7" orient="auto"><path d="M0,0 L10,5 L0,10 z" class="f-ink"/></marker><marker id="as-ink" viewBox="0 0 10 10" refX="1" refY="5" markerWidth="7" markerHeight="7" orient="auto"><path d="M10,0 L0,5 L10,10 z" class="f-ink"/></marker><marker id="ah-muted" viewBox="0 0 10 10" refX="9" refY="5" markerWidth="7" markerHeight="7" orient="auto"><path d="M0,0 L10,5 L0,10 z" class="f-muted"/></marker><marker id="as-muted" viewBox="0 0 10 10" refX="1" refY="5" markerWidth="7" markerHeight="7" orient="auto"><path d="M10,0 L0,5 L10,10 z" class="f-muted"/></marker><marker id="ah-blue" viewBox="0 0 10 10" refX="9" refY="5" markerWidth="7" markerHeight="7" orient="auto"><path d="M0,0 L10,5 L0,10 z" class="f-blue"/></marker><marker id="as-blue" viewBox="0 0 10 10" refX="1" refY="5" markerWidth="7" markerHeight="7" orient="auto"><path d="M10,0 L0,5 L10,10 z" class="f-blue"/></marker><marker id="ah-orange" viewBox="0 0 10 10" refX="9" refY="5" markerWidth="7" markerHeight="7" orient="auto"><path d="M0,0 L10,5 L0,10 z" class="f-orange"/></marker><marker id="as-orange" viewBox="0 0 10 10" refX="1" refY="5" markerWidth="7" markerHeight="7" orient="auto"><path d="M10,0 L0,5 L10,10 z" class="f-orange"/></marker><marker id="ah-green" viewBox="0 0 10 10" refX="9" refY="5" markerWidth="7" markerHeight="7" orient="auto"><path d="M0,0 L10,5 L0,10 z" class="f-green"/></marker><marker id="as-green" viewBox="0 0 10 10" refX="1" refY="5" markerWidth="7" markerHeight="7" orient="auto"><path d="M10,0 L0,5 L10,10 z" class="f-green"/></marker><marker id="ah-red" viewBox="0 0 10 10" refX="9" refY="5" markerWidth="7" markerHeight="7" orient="auto"><path d="M0,0 L10,5 L0,10 z" class="f-red"/></marker><marker id="as-red" viewBox="0 0 10 10" refX="1" refY="5" markerWidth="7" markerHeight="7" orient="auto"><path d="M10,0 L0,5 L10,10 z" class="f-red"/></marker><marker id="ah-purple" viewBox="0 0 10 10" refX="9" refY="5" markerWidth="7" markerHeight="7" orient="auto"><path d="M0,0 L10,5 L0,10 z" class="f-purple"/></marker><marker id="as-purple" viewBox="0 0 10 10" refX="1" refY="5" markerWidth="7" markerHeight="7" orient="auto"><path d="M10,0 L0,5 L10,10 z" class="f-purple"/></marker><marker id="ah-grey" viewBox="0 0 10 10" refX="9" refY="5" markerWidth="7" markerHeight="7" orient="auto"><path d="M0,0 L10,5 L0,10 z" class="f-grey"/></marker><marker id="as-grey" viewBox="0 0 10 10" refX="1" refY="5" markerWidth="7" markerHeight="7" orient="auto"><path d="M10,0 L0,5 L10,10 z" class="f-grey"/></marker></defs>
<rect class="bg" x="0" y="0" width="702" height="318"/>
<text x="24" y="30" font-size="17" font-weight="700" class="t-ink display" xml:space="preserve">Filtering after the index scan can return too few rows</text>
<g transform="translate(0 44)"><text x="24" y="8" font-size="14" font-weight="600" class="t-ink" xml:space="preserve">Without iterative scans</text><text x="24" y="28" font-size="12.5" class="t-muted" xml:space="preserve">The index returns ef_search = 40 candidates, then WHERE filters them.</text><rect x="24" y="44" width="10" height="16" rx="2" class="fs-grey s-grey" stroke-width="1"/><rect x="36" y="44" width="10" height="16" rx="2" class="fs-grey s-grey" stroke-width="1"/><rect x="48" y="44" width="10" height="16" rx="2" class="fs-grey s-grey" stroke-width="1"/><rect x="60" y="44" width="10" height="16" rx="2" class="f-green"/><rect x="72" y="44" width="10" height="16" rx="2" class="fs-grey s-grey" stroke-width="1"/><rect x="84" y="44" width="10" height="16" rx="2" class="fs-grey s-grey" stroke-width="1"/><rect x="96" y="44" width="10" height="16" rx="2" class="fs-grey s-grey" stroke-width="1"/><rect x="108" y="44" width="10" height="16" rx="2" class="fs-grey s-grey" stroke-width="1"/><rect x="120" y="44" width="10" height="16" rx="2" class="fs-grey s-grey" stroke-width="1"/><rect x="132" y="44" width="10" height="16" rx="2" class="fs-grey s-grey" stroke-width="1"/><rect x="144" y="44" width="10" height="16" rx="2" class="fs-grey s-grey" stroke-width="1"/><rect x="156" y="44" width="10" height="16" rx="2" class="fs-grey s-grey" stroke-width="1"/><rect x="168" y="44" width="10" height="16" rx="2" class="f-green"/><rect x="180" y="44" width="10" height="16" rx="2" class="fs-grey s-grey" stroke-width="1"/><rect x="192" y="44" width="10" height="16" rx="2" class="fs-grey s-grey" stroke-width="1"/><rect x="204" y="44" width="10" height="16" rx="2" class="fs-grey s-grey" stroke-width="1"/><rect x="216" y="44" width="10" height="16" rx="2" class="fs-grey s-grey" stroke-width="1"/><rect x="228" y="44" width="10" height="16" rx="2" class="fs-grey s-grey" stroke-width="1"/><rect x="240" y="44" width="10" height="16" rx="2" class="fs-grey s-grey" stroke-width="1"/><rect x="252" y="44" width="10" height="16" rx="2" class="fs-grey s-grey" stroke-width="1"/><rect x="264" y="44" width="10" height="16" rx="2" class="fs-grey s-grey" stroke-width="1"/><rect x="276" y="44" width="10" height="16" rx="2" class="fs-grey s-grey" stroke-width="1"/><rect x="288" y="44" width="10" height="16" rx="2" class="fs-grey s-grey" stroke-width="1"/><rect x="300" y="44" width="10" height="16" rx="2" class="fs-grey s-grey" stroke-width="1"/><rect x="312" y="44" width="10" height="16" rx="2" class="fs-grey s-grey" stroke-width="1"/><rect x="324" y="44" width="10" height="16" rx="2" class="f-green"/><rect x="336" y="44" width="10" height="16" rx="2" class="fs-grey s-grey" stroke-width="1"/><rect x="348" y="44" width="10" height="16" rx="2" class="fs-grey s-grey" stroke-width="1"/><rect x="360" y="44" width="10" height="16" rx="2" class="fs-grey s-grey" stroke-width="1"/><rect x="372" y="44" width="10" height="16" rx="2" class="fs-grey s-grey" stroke-width="1"/><rect x="384" y="44" width="10" height="16" rx="2" class="fs-grey s-grey" stroke-width="1"/><rect x="396" y="44" width="10" height="16" rx="2" class="fs-grey s-grey" stroke-width="1"/><rect x="408" y="44" width="10" height="16" rx="2" class="fs-grey s-grey" stroke-width="1"/><rect x="420" y="44" width="10" height="16" rx="2" class="fs-grey s-grey" stroke-width="1"/><rect x="432" y="44" width="10" height="16" rx="2" class="fs-grey s-grey" stroke-width="1"/><rect x="444" y="44" width="10" height="16" rx="2" class="fs-grey s-grey" stroke-width="1"/><rect x="456" y="44" width="10" height="16" rx="2" class="f-green"/><rect x="468" y="44" width="10" height="16" rx="2" class="fs-grey s-grey" stroke-width="1"/><rect x="480" y="44" width="10" height="16" rx="2" class="fs-grey s-grey" stroke-width="1"/><rect x="492" y="44" width="10" height="16" rx="2" class="fs-grey s-grey" stroke-width="1"/><rect x="528" y="32" width="150" height="42" rx="6" class="fs-red s-red" stroke-width="1.5"/><text x="603" y="44.88" font-size="12.5" text-anchor="middle" font-weight="600" dominant-baseline="central" class="t-red" xml:space="preserve">4 rows</text><text x="603" y="61.13" font-size="12.5" text-anchor="middle" font-weight="600" dominant-baseline="central" class="t-red" xml:space="preserve">(asked for 10)</text><text x="24" y="112" font-size="14" font-weight="600" class="t-ink" xml:space="preserve">With iterative scans (pgvector 0.8.0+)</text><text x="24" y="132" font-size="12.5" class="t-muted" xml:space="preserve">It keeps scanning until 10 rows pass, or it hits hnsw.max_scan_tuples.</text><rect x="24" y="148" width="10" height="16" rx="2" class="fs-grey s-grey" stroke-width="1"/><rect x="36" y="148" width="10" height="16" rx="2" class="fs-grey s-grey" stroke-width="1"/><rect x="48" y="148" width="10" height="16" rx="2" class="fs-grey s-grey" stroke-width="1"/><rect x="60" y="148" width="10" height="16" rx="2" class="f-green"/><rect x="72" y="148" width="10" height="16" rx="2" class="fs-grey s-grey" stroke-width="1"/><rect x="84" y="148" width="10" height="16" rx="2" class="fs-grey s-grey" stroke-width="1"/><rect x="96" y="148" width="10" height="16" rx="2" class="fs-grey s-grey" stroke-width="1"/><rect x="108" y="148" width="10" height="16" rx="2" class="fs-grey s-grey" stroke-width="1"/><rect x="120" y="148" width="10" height="16" rx="2" class="fs-grey s-grey" stroke-width="1"/><rect x="132" y="148" width="10" height="16" rx="2" class="fs-grey s-grey" stroke-width="1"/><rect x="144" y="148" width="10" height="16" rx="2" class="fs-grey s-grey" stroke-width="1"/><rect x="156" y="148" width="10" height="16" rx="2" class="fs-grey s-grey" stroke-width="1"/><rect x="168" y="148" width="10" height="16" rx="2" class="f-green"/><rect x="180" y="148" width="10" height="16" rx="2" class="fs-grey s-grey" stroke-width="1"/><rect x="192" y="148" width="10" height="16" rx="2" class="fs-grey s-grey" stroke-width="1"/><rect x="204" y="148" width="10" height="16" rx="2" class="fs-grey s-grey" stroke-width="1"/><rect x="216" y="148" width="10" height="16" rx="2" class="fs-grey s-grey" stroke-width="1"/><rect x="228" y="148" width="10" height="16" rx="2" class="fs-grey s-grey" stroke-width="1"/><rect x="240" y="148" width="10" height="16" rx="2" class="fs-grey s-grey" stroke-width="1"/><rect x="252" y="148" width="10" height="16" rx="2" class="fs-grey s-grey" stroke-width="1"/><rect x="264" y="148" width="10" height="16" rx="2" class="fs-grey s-grey" stroke-width="1"/><rect x="276" y="148" width="10" height="16" rx="2" class="fs-grey s-grey" stroke-width="1"/><rect x="288" y="148" width="10" height="16" rx="2" class="fs-grey s-grey" stroke-width="1"/><rect x="300" y="148" width="10" height="16" rx="2" class="fs-grey s-grey" stroke-width="1"/><rect x="312" y="148" width="10" height="16" rx="2" class="fs-grey s-grey" stroke-width="1"/><rect x="324" y="148" width="10" height="16" rx="2" class="f-green"/><rect x="336" y="148" width="10" height="16" rx="2" class="fs-grey s-grey" stroke-width="1"/><rect x="348" y="148" width="10" height="16" rx="2" class="fs-grey s-grey" stroke-width="1"/><rect x="360" y="148" width="10" height="16" rx="2" class="fs-grey s-grey" stroke-width="1"/><rect x="372" y="148" width="10" height="16" rx="2" class="fs-grey s-grey" stroke-width="1"/><rect x="384" y="148" width="10" height="16" rx="2" class="fs-grey s-grey" stroke-width="1"/><rect x="396" y="148" width="10" height="16" rx="2" class="fs-grey s-grey" stroke-width="1"/><rect x="408" y="148" width="10" height="16" rx="2" class="fs-grey s-grey" stroke-width="1"/><rect x="420" y="148" width="10" height="16" rx="2" class="fs-grey s-grey" stroke-width="1"/><rect x="432" y="148" width="10" height="16" rx="2" class="fs-grey s-grey" stroke-width="1"/><rect x="444" y="148" width="10" height="16" rx="2" class="fs-grey s-grey" stroke-width="1"/><rect x="456" y="148" width="10" height="16" rx="2" class="f-green"/><rect x="468" y="148" width="10" height="16" rx="2" class="fs-grey s-grey" stroke-width="1"/><rect x="480" y="148" width="10" height="16" rx="2" class="fs-grey s-grey" stroke-width="1"/><rect x="492" y="148" width="10" height="16" rx="2" class="fs-grey s-grey" stroke-width="1"/><rect x="24" y="166" width="10" height="16" rx="2" class="fs-grey s-grey" stroke-width="1"/><rect x="36" y="166" width="10" height="16" rx="2" class="fs-grey s-grey" stroke-width="1"/><rect x="48" y="166" width="10" height="16" rx="2" class="fs-grey s-grey" stroke-width="1"/><rect x="60" y="166" width="10" height="16" rx="2" class="fs-grey s-grey" stroke-width="1"/><rect x="72" y="166" width="10" height="16" rx="2" class="f-green"/><rect x="84" y="166" width="10" height="16" rx="2" class="fs-grey s-grey" stroke-width="1"/><rect x="96" y="166" width="10" height="16" rx="2" class="fs-grey s-grey" stroke-width="1"/><rect x="108" y="166" width="10" height="16" rx="2" class="fs-grey s-grey" stroke-width="1"/><rect x="120" y="166" width="10" height="16" rx="2" class="fs-grey s-grey" stroke-width="1"/><rect x="132" y="166" width="10" height="16" rx="2" class="fs-grey s-grey" stroke-width="1"/><rect x="144" y="166" width="10" height="16" rx="2" class="fs-grey s-grey" stroke-width="1"/><rect x="156" y="166" width="10" height="16" rx="2" class="fs-grey s-grey" stroke-width="1"/><rect x="168" y="166" width="10" height="16" rx="2" class="fs-grey s-grey" stroke-width="1"/><rect x="180" y="166" width="10" height="16" rx="2" class="fs-grey s-grey" stroke-width="1"/><rect x="192" y="166" width="10" height="16" rx="2" class="fs-grey s-grey" stroke-width="1"/><rect x="204" y="166" width="10" height="16" rx="2" class="fs-grey s-grey" stroke-width="1"/><rect x="216" y="166" width="10" height="16" rx="2" class="fs-grey s-grey" stroke-width="1"/><rect x="228" y="166" width="10" height="16" rx="2" class="f-green"/><rect x="240" y="166" width="10" height="16" rx="2" class="fs-grey s-grey" stroke-width="1"/><rect x="252" y="166" width="10" height="16" rx="2" class="fs-grey s-grey" stroke-width="1"/><rect x="264" y="166" width="10" height="16" rx="2" class="fs-grey s-grey" stroke-width="1"/><rect x="276" y="166" width="10" height="16" rx="2" class="fs-grey s-grey" stroke-width="1"/><rect x="288" y="166" width="10" height="16" rx="2" class="fs-grey s-grey" stroke-width="1"/><rect x="300" y="166" width="10" height="16" rx="2" class="f-green"/><rect x="312" y="166" width="10" height="16" rx="2" class="fs-grey s-grey" stroke-width="1"/><rect x="324" y="166" width="10" height="16" rx="2" class="fs-grey s-grey" stroke-width="1"/><rect x="336" y="166" width="10" height="16" rx="2" class="fs-grey s-grey" stroke-width="1"/><rect x="348" y="166" width="10" height="16" rx="2" class="fs-grey s-grey" stroke-width="1"/><rect x="360" y="166" width="10" height="16" rx="2" class="fs-grey s-grey" stroke-width="1"/><rect x="372" y="166" width="10" height="16" rx="2" class="fs-grey s-grey" stroke-width="1"/><rect x="384" y="166" width="10" height="16" rx="2" class="fs-grey s-grey" stroke-width="1"/><rect x="396" y="166" width="10" height="16" rx="2" class="fs-grey s-grey" stroke-width="1"/><rect x="408" y="166" width="10" height="16" rx="2" class="fs-grey s-grey" stroke-width="1"/><rect x="420" y="166" width="10" height="16" rx="2" class="fs-grey s-grey" stroke-width="1"/><rect x="432" y="166" width="10" height="16" rx="2" class="fs-grey s-grey" stroke-width="1"/><rect x="444" y="166" width="10" height="16" rx="2" class="fs-grey s-grey" stroke-width="1"/><rect x="456" y="166" width="10" height="16" rx="2" class="fs-grey s-grey" stroke-width="1"/><rect x="468" y="166" width="10" height="16" rx="2" class="fs-grey s-grey" stroke-width="1"/><rect x="480" y="166" width="10" height="16" rx="2" class="f-green"/><rect x="492" y="166" width="10" height="16" rx="2" class="fs-grey s-grey" stroke-width="1"/><rect x="24" y="184" width="10" height="16" rx="2" class="fs-grey s-grey" stroke-width="1"/><rect x="36" y="184" width="10" height="16" rx="2" class="fs-grey s-grey" stroke-width="1"/><rect x="48" y="184" width="10" height="16" rx="2" class="fs-grey s-grey" stroke-width="1"/><rect x="60" y="184" width="10" height="16" rx="2" class="fs-grey s-grey" stroke-width="1"/><rect x="72" y="184" width="10" height="16" rx="2" class="fs-grey s-grey" stroke-width="1"/><rect x="84" y="184" width="10" height="16" rx="2" class="fs-grey s-grey" stroke-width="1"/><rect x="96" y="184" width="10" height="16" rx="2" class="f-green"/><rect x="108" y="184" width="10" height="16" rx="2" class="fs-grey s-grey" stroke-width="1"/><rect x="120" y="184" width="10" height="16" rx="2" class="fs-grey s-grey" stroke-width="1"/><rect x="132" y="184" width="10" height="16" rx="2" class="fs-grey s-grey" stroke-width="1"/><rect x="144" y="184" width="10" height="16" rx="2" class="fs-grey s-grey" stroke-width="1"/><rect x="156" y="184" width="10" height="16" rx="2" class="fs-grey s-grey" stroke-width="1"/><rect x="168" y="184" width="10" height="16" rx="2" class="fs-grey s-grey" stroke-width="1"/><rect x="180" y="184" width="10" height="16" rx="2" class="fs-grey s-grey" stroke-width="1"/><rect x="192" y="184" width="10" height="16" rx="2" class="fs-grey s-grey" stroke-width="1"/><rect x="204" y="184" width="10" height="16" rx="2" class="f-green"/><rect x="528" y="157" width="150" height="34" rx="6" class="fs-green s-green" stroke-width="1.5"/><text x="603" y="174" font-size="13" text-anchor="middle" font-weight="600" dominant-baseline="central" class="t-green" xml:space="preserve">10 rows</text><rect x="24" y="220" width="10" height="16" rx="2" class="f-green"/><text x="42" y="228" font-size="12.5" dominant-baseline="central" class="t-ink" xml:space="preserve">passes the filter (10% of rows)</text><rect x="254" y="220" width="10" height="16" rx="2" class="fs-grey s-grey" stroke-width="1"/><text x="272" y="228" font-size="12.5" dominant-baseline="central" class="t-ink" xml:space="preserve">nearest-first candidate, filtered out</text></g>
<text x="24" y="307" font-size="11.5" font-style="italic" class="t-muted" xml:space="preserve">Counts from the pgvector README's 10% example; which candidates pass is illustrative.</text>
</svg>
